<svg width="44" height="44" viewBox="0 0 44 44" fill="none" xmlns="http://www.w3.org/2000/svg">
<path d="M30.0353 15.168H28.02C27.5817 15.168 27.1649 15.3785 26.9071 15.7395L20.1524 25.1066L17.093 20.8613C16.8352 20.5047 16.4227 20.2898 15.9801 20.2898H13.9649C13.6856 20.2898 13.5223 20.6078 13.6856 20.8355L19.0395 28.2605C19.166 28.4371 19.3327 28.5809 19.5259 28.6801C19.7191 28.7794 19.9331 28.8311 20.1503 28.8311C20.3674 28.8311 20.5815 28.7794 20.7746 28.6801C20.9678 28.5809 21.1345 28.4371 21.261 28.2605L30.3103 15.7137C30.4778 15.4859 30.3146 15.168 30.0353 15.168V15.168Z" fill="#BC9F5F"/>
<path d="M22 2.75C11.3695 2.75 2.75 11.3695 2.75 22C2.75 32.6305 11.3695 41.25 22 41.25C32.6305 41.25 41.25 32.6305 41.25 22C41.25 11.3695 32.6305 2.75 22 2.75ZM22 37.9844C13.1742 37.9844 6.01562 30.8258 6.01562 22C6.01562 13.1742 13.1742 6.01562 22 6.01562C30.8258 6.01562 37.9844 13.1742 37.9844 22C37.9844 30.8258 30.8258 37.9844 22 37.9844Z" fill="#BC9F5F"/>
</svg>
