<svg width="36" height="36" viewBox="0 0 36 36" fill="none" xmlns="http://www.w3.org/2000/svg">
<path d="M32.0594 7.94961C31.9696 7.67378 31.795 7.43339 31.5604 7.26283C31.3257 7.09227 31.0432 7.00027 30.7531 7H27.625V2.1875C27.625 1.42695 27.0105 0.8125 26.25 0.8125H9.75C8.98945 0.8125 8.375 1.42695 8.375 2.1875V7H5.24687C4.95665 6.99961 4.6738 7.09135 4.43905 7.26201C4.20431 7.43266 4.02978 7.67342 3.94063 7.94961L0.8125 17.5703V33.8125C0.8125 34.573 1.42695 35.1875 2.1875 35.1875H33.8125C34.573 35.1875 35.1875 34.573 35.1875 33.8125V17.5703L32.0594 7.94961ZM11.4688 3.90625H24.5312V7H11.4688V3.90625ZM32.0938 32.0938H3.90625V18.0602L6.49727 10.0938H29.5027L32.0938 18.0602V32.0938ZM24.0156 20.5781H19.375V15.9375C19.375 15.7484 19.2203 15.5938 19.0312 15.5938H16.9688C16.7797 15.5938 16.625 15.7484 16.625 15.9375V20.5781H11.9844C11.7953 20.5781 11.6406 20.7328 11.6406 20.9219V22.9844C11.6406 23.1734 11.7953 23.3281 11.9844 23.3281H16.625V27.9688C16.625 28.1578 16.7797 28.3125 16.9688 28.3125H19.0312C19.2203 28.3125 19.375 28.1578 19.375 27.9688V23.3281H24.0156C24.2047 23.3281 24.3594 23.1734 24.3594 22.9844V20.9219C24.3594 20.7328 24.2047 20.5781 24.0156 20.5781Z" fill="#BC9F5F"/>
</svg>
