<svg width="34" height="38" viewBox="0 0 34 38" fill="none" xmlns="http://www.w3.org/2000/svg">
<path d="M24.5625 10.4062V8.34375C24.5625 8.15469 24.4078 8 24.2188 8H7.71875C7.52969 8 7.375 8.15469 7.375 8.34375V10.4062C7.375 10.5953 7.52969 10.75 7.71875 10.75H24.2188C24.4078 10.75 24.5625 10.5953 24.5625 10.4062ZM7.71875 14.1875C7.52969 14.1875 7.375 14.3422 7.375 14.5312V16.5938C7.375 16.7828 7.52969 16.9375 7.71875 16.9375H15.625C15.8141 16.9375 15.9688 16.7828 15.9688 16.5938V14.5312C15.9688 14.3422 15.8141 14.1875 15.625 14.1875H7.71875ZM23.875 19.1719C18.7488 19.1719 14.5938 23.327 14.5938 28.4531C14.5938 33.5793 18.7488 37.7344 23.875 37.7344C29.0012 37.7344 33.1562 33.5793 33.1562 28.4531C33.1562 23.327 29.0012 19.1719 23.875 19.1719ZM28.4941 33.0723C27.2609 34.3055 25.6195 34.9844 23.875 34.9844C22.1305 34.9844 20.4891 34.3055 19.2559 33.0723C18.0227 31.8391 17.3438 30.1977 17.3438 28.4531C17.3438 26.7086 18.0227 25.0672 19.2559 23.834C20.4891 22.6008 22.1305 21.9219 23.875 21.9219C25.6195 21.9219 27.2609 22.6008 28.4941 23.834C29.7273 25.0672 30.4062 26.7086 30.4062 28.4531C30.4062 30.1977 29.7273 31.8391 28.4941 33.0723ZM27.6992 25.1875H25.7957C25.684 25.1875 25.5809 25.2391 25.5164 25.3293L22.7879 29.102L21.7953 27.7313C21.7635 27.687 21.7216 27.651 21.6729 27.6263C21.6243 27.6016 21.5705 27.589 21.516 27.5895H19.6211C19.3418 27.5895 19.1785 27.9074 19.3418 28.1352L22.5129 32.5223C22.6504 32.7113 22.9297 32.7113 23.0672 32.5223L27.9742 25.7332C28.1418 25.5055 27.9785 25.1875 27.6992 25.1875ZM13.9062 33.6094H3.9375V3.35938H28V18.1406C28 18.3297 28.1547 18.4844 28.3438 18.4844H30.75C30.9391 18.4844 31.0938 18.3297 31.0938 18.1406V1.64062C31.0938 0.880078 30.4793 0.265625 29.7188 0.265625H2.21875C1.4582 0.265625 0.84375 0.880078 0.84375 1.64062V35.3281C0.84375 36.0887 1.4582 36.7031 2.21875 36.7031H13.9062C14.0953 36.7031 14.25 36.5484 14.25 36.3594V33.9531C14.25 33.7641 14.0953 33.6094 13.9062 33.6094Z" fill="#BC9F5F"/>
</svg>
