<svg width="36" height="36" viewBox="0 0 36 36" fill="none" xmlns="http://www.w3.org/2000/svg">
<path d="M33.2969 2.875H29.3438V1.15625C29.3438 0.967187 29.1891 0.8125 29 0.8125H7C6.81094 0.8125 6.65625 0.967187 6.65625 1.15625V2.875H2.70312C2.2017 2.875 1.72081 3.07419 1.36625 3.42875C1.01169 3.78331 0.8125 4.2642 0.8125 4.76562V11.125C0.8125 14.6355 3.39062 17.5531 6.75078 18.0859C7.4168 23.0789 11.4258 27.0105 16.4531 27.5605V32.0809H8.03125C7.2707 32.0809 6.65625 32.6953 6.65625 33.4559V34.8438C6.65625 35.0328 6.81094 35.1875 7 35.1875H29C29.1891 35.1875 29.3438 35.0328 29.3438 34.8438V33.4559C29.3438 32.6953 28.7293 32.0809 27.9688 32.0809H19.5469V27.5605C24.5742 27.0105 28.5832 23.0789 29.2492 18.0859C32.6094 17.5531 35.1875 14.6355 35.1875 11.125V4.76562C35.1875 4.2642 34.9883 3.78331 34.6337 3.42875C34.2792 3.07419 33.7983 2.875 33.2969 2.875ZM3.90625 11.125V5.96875H6.65625V14.8891C5.85809 14.6341 5.1616 14.1321 4.66731 13.4556C4.17302 12.779 3.90651 11.9629 3.90625 11.125V11.125ZM26.25 16.625C26.25 18.7348 25.4293 20.7242 23.934 22.2152C22.4387 23.7105 20.4535 24.5312 18.3438 24.5312H17.6562C15.5465 24.5312 13.557 23.7105 12.066 22.2152C10.5707 20.7199 9.75 18.7348 9.75 16.625V3.90625H26.25V16.625ZM32.0938 11.125C32.0938 12.8867 30.9379 14.382 29.3438 14.8891V5.96875H32.0938V11.125Z" fill="#BC9F5F"/>
</svg>
