<svg width="51" height="51" viewBox="0 0 51 51" fill="none" xmlns="http://www.w3.org/2000/svg">
<path d="M44.5136 37.7433C42.9493 36.1776 41.1213 34.8998 39.1136 33.9683C41.9449 31.6745 43.7511 28.1745 43.7511 24.2495C43.7511 17.3245 37.9761 11.6433 31.0511 11.7495C24.2324 11.8558 18.7386 17.412 18.7386 24.2495C18.7386 28.1745 20.5511 31.6745 23.3761 33.9683C21.368 34.8991 19.54 36.177 17.9761 37.7433C14.5636 41.162 12.6261 45.6745 12.5011 50.487C12.4995 50.5537 12.5112 50.6201 12.5355 50.6822C12.5599 50.7443 12.5965 50.8009 12.6431 50.8487C12.6897 50.8964 12.7454 50.9344 12.8069 50.9603C12.8684 50.9862 12.9344 50.9995 13.0011 50.9995H16.5011C16.7699 50.9995 16.9949 50.787 17.0011 50.5183C17.1199 46.8933 18.5886 43.4995 21.1699 40.9245C22.4908 39.5966 24.0619 38.5439 25.7923 37.8272C27.5228 37.1106 29.3782 36.7443 31.2511 36.7495C35.0574 36.7495 38.6386 38.2308 41.3324 40.9245C43.9074 43.4995 45.3761 46.8933 45.5011 50.5183C45.5074 50.787 45.7324 50.9995 46.0011 50.9995H49.5011C49.5679 50.9995 49.6339 50.9862 49.6954 50.9603C49.7569 50.9344 49.8126 50.8964 49.8592 50.8487C49.9058 50.8009 49.9423 50.7443 49.9667 50.6822C49.9911 50.6201 50.0028 50.5537 50.0011 50.487C49.8761 45.6745 47.9386 41.162 44.5136 37.7433ZM31.2511 32.2495C29.1136 32.2495 27.1011 31.4183 25.5949 29.9058C24.839 29.1558 24.2419 28.2613 23.8392 27.2755C23.4365 26.2898 23.2365 25.233 23.2511 24.1683C23.2699 22.1183 24.0886 20.137 25.5199 18.6683C27.0199 17.1308 29.0261 16.2745 31.1699 16.2495C33.2886 16.2308 35.3449 17.0558 36.8574 18.537C38.4074 20.0558 39.2574 22.087 39.2574 24.2495C39.2574 26.387 38.4261 28.3933 36.9136 29.9058C36.1716 30.6514 35.2891 31.2424 34.3171 31.6447C33.3451 32.047 32.3031 32.2526 31.2511 32.2495ZM15.5949 25.8995C15.5386 25.3558 15.5074 24.8058 15.5074 24.2495C15.5074 23.2558 15.6011 22.287 15.7761 21.3433C15.8199 21.1183 15.7011 20.887 15.4949 20.7933C14.6449 20.412 13.8636 19.887 13.1886 19.2245C12.3933 18.4533 11.7674 17.5248 11.3509 16.4982C10.9345 15.4715 10.7366 14.3694 10.7699 13.262C10.8261 11.2558 11.6324 9.34951 13.0386 7.91201C14.5824 6.33076 16.6574 5.46826 18.8636 5.49326C20.8574 5.51201 22.7824 6.28076 24.2386 7.64326C24.7324 8.10576 25.1574 8.61826 25.5136 9.16826C25.6386 9.36201 25.8824 9.44326 26.0949 9.36826C27.1949 8.98701 28.3574 8.71826 29.5511 8.59326C29.9011 8.55576 30.1011 8.18076 29.9449 7.86826C27.9136 3.84951 23.7636 1.07451 18.9636 0.999513C12.0324 0.893263 6.25738 6.57451 6.25738 13.4933C6.25738 17.4183 8.06363 20.9183 10.8949 23.212C8.90738 24.1308 7.07613 25.3995 5.48863 26.987C2.06363 30.4058 0.126133 34.9183 0.00113285 39.737C-0.000535307 39.8037 0.0111649 39.8701 0.0355443 39.9322C0.0599237 39.9943 0.0964889 40.0509 0.143085 40.0987C0.189682 40.1464 0.245367 40.1844 0.306859 40.2103C0.368352 40.2362 0.434407 40.2495 0.501133 40.2495H4.00738C4.27613 40.2495 4.50113 40.037 4.50738 39.7683C4.62613 36.1433 6.09488 32.7495 8.67613 30.1745C10.5136 28.337 12.7636 27.062 15.2199 26.4433C15.4636 26.3808 15.6261 26.1495 15.5949 25.8995V25.8995Z" fill="#BC9F5F"/>
</svg>
