<svg width="40" height="32" viewBox="0 0 40 32" fill="none" xmlns="http://www.w3.org/2000/svg">
<path d="M37.875 0.91797H28.0438C25.934 0.91797 23.8715 1.52383 22.0969 2.6668L20 4.01172L17.9031 2.6668C16.1303 1.52405 14.0655 0.916842 11.9562 0.91797H2.125C1.36445 0.91797 0.75 1.53242 0.75 2.29297V26.6992C0.75 27.4598 1.36445 28.0742 2.125 28.0742H11.9562C14.066 28.0742 16.1285 28.6801 17.9031 29.8231L19.8109 31.052C19.8668 31.0863 19.9312 31.1078 19.9957 31.1078C20.0602 31.1078 20.1246 31.0906 20.1805 31.052L22.0883 29.8231C23.8672 28.6801 25.934 28.0742 28.0438 28.0742H37.875C38.6355 28.0742 39.25 27.4598 39.25 26.6992V2.29297C39.25 1.53242 38.6355 0.91797 37.875 0.91797ZM11.9562 24.9805H3.84375V4.01172H11.9562C13.4773 4.01172 14.9555 4.44571 16.2316 5.26641L18.3285 6.61133L18.625 6.80469V26.6563C16.5797 25.5563 14.2937 24.9805 11.9562 24.9805ZM36.1562 24.9805H28.0438C25.7063 24.9805 23.4203 25.5563 21.375 26.6563V6.80469L21.6715 6.61133L23.7684 5.26641C25.0445 4.44571 26.5227 4.01172 28.0438 4.01172H36.1562V24.9805ZM15.0543 9.51172H7.0707C6.90313 9.51172 6.76562 9.65781 6.76562 9.83399V11.7676C6.76562 11.9438 6.90313 12.0898 7.0707 12.0898H15.05C15.2176 12.0898 15.3551 11.9438 15.3551 11.7676V9.83399C15.3594 9.65781 15.2219 9.51172 15.0543 9.51172ZM24.6406 9.83399V11.7676C24.6406 11.9438 24.7781 12.0898 24.9457 12.0898H32.925C33.0926 12.0898 33.2301 11.9438 33.2301 11.7676V9.83399C33.2301 9.65781 33.0926 9.51172 32.925 9.51172H24.9457C24.7781 9.51172 24.6406 9.65781 24.6406 9.83399ZM15.0543 15.5273H7.0707C6.90313 15.5273 6.76562 15.6734 6.76562 15.8496V17.7832C6.76562 17.9594 6.90313 18.1055 7.0707 18.1055H15.05C15.2176 18.1055 15.3551 17.9594 15.3551 17.7832V15.8496C15.3594 15.6734 15.2219 15.5273 15.0543 15.5273ZM32.9293 15.5273H24.9457C24.7781 15.5273 24.6406 15.6734 24.6406 15.8496V17.7832C24.6406 17.9594 24.7781 18.1055 24.9457 18.1055H32.925C33.0926 18.1055 33.2301 17.9594 33.2301 17.7832V15.8496C33.2344 15.6734 33.0969 15.5273 32.9293 15.5273Z" fill="#BC9F5F"/>
</svg>
