<svg width="34" height="38" viewBox="0 0 34 38" fill="none" xmlns="http://www.w3.org/2000/svg">
<path d="M24.5625 8.34375C24.5625 8.15469 24.4078 8 24.2188 8H7.71875C7.52969 8 7.375 8.15469 7.375 8.34375V10.4062C7.375 10.5953 7.52969 10.75 7.71875 10.75H24.2188C24.4078 10.75 24.5625 10.5953 24.5625 10.4062V8.34375ZM24.2188 14.1875H7.71875C7.52969 14.1875 7.375 14.3422 7.375 14.5312V16.5938C7.375 16.7828 7.52969 16.9375 7.71875 16.9375H24.2188C24.4078 16.9375 24.5625 16.7828 24.5625 16.5938V14.5312C24.5625 14.3422 24.4078 14.1875 24.2188 14.1875ZM15.625 20.375H7.71875C7.52969 20.375 7.375 20.5297 7.375 20.7188V22.7812C7.375 22.9703 7.52969 23.125 7.71875 23.125H15.625C15.8141 23.125 15.9688 22.9703 15.9688 22.7812V20.7188C15.9688 20.5297 15.8141 20.375 15.625 20.375ZM13.5625 33.6094H3.9375V3.35938H28V18.1406C28 18.3297 28.1547 18.4844 28.3438 18.4844H30.75C30.9391 18.4844 31.0938 18.3297 31.0938 18.1406V1.64062C31.0938 0.880078 30.4793 0.265625 29.7188 0.265625H2.21875C1.4582 0.265625 0.84375 0.880078 0.84375 1.64062V35.3281C0.84375 36.0887 1.4582 36.7031 2.21875 36.7031H13.5625C13.7516 36.7031 13.9063 36.5484 13.9063 36.3594V33.9531C13.9063 33.7641 13.7516 33.6094 13.5625 33.6094ZM28.8938 30.4125C30.1398 29.2824 30.9219 27.6496 30.9219 25.832C30.9219 22.416 28.1504 19.6445 24.7344 19.6445C21.3184 19.6445 18.5469 22.416 18.5469 25.832C18.5469 27.6496 19.3289 29.2824 20.575 30.4125C18.1258 31.809 16.4414 34.3957 16.3125 37.3777C16.3039 37.5711 16.4629 37.7344 16.6563 37.7344H18.723C18.9035 37.7344 19.0539 37.5926 19.0668 37.4078C19.2344 34.4344 21.7137 32.0625 24.7344 32.0625C27.7551 32.0625 30.2344 34.4344 30.402 37.4078C30.4106 37.5883 30.5609 37.7344 30.7457 37.7344H32.8125C33.0102 37.7344 33.1648 37.5711 33.1563 37.3777C33.0316 34.3914 31.343 31.809 28.8938 30.4125ZM24.7344 22.3945C26.6336 22.3945 28.1719 23.9328 28.1719 25.832C28.1719 27.7313 26.6336 29.2695 24.7344 29.2695C22.8352 29.2695 21.2969 27.7313 21.2969 25.832C21.2969 23.9328 22.8352 22.3945 24.7344 22.3945Z" fill="#BC9F5F"/>
</svg>
