<svg width="40" height="34" viewBox="0 0 40 34" fill="none" xmlns="http://www.w3.org/2000/svg">
<path d="M14.3277 25.2506H25.6715C25.8605 25.2506 26.0152 25.0959 26.0152 24.9068V21.2975C26.0152 21.1084 25.8605 20.9537 25.6715 20.9537H23.9527C23.7637 20.9537 23.609 21.1084 23.609 21.2975V22.8443H16.3902V21.2975C16.3902 21.1084 16.2355 20.9537 16.0465 20.9537H14.3277C14.1387 20.9537 13.984 21.1084 13.984 21.2975V24.9068C13.984 25.0959 14.1387 25.2506 14.3277 25.2506ZM28.9371 19.9654C28.9371 20.4213 29.1182 20.8584 29.4405 21.1808C29.7628 21.5031 30.2 21.6842 30.6559 21.6842C31.1117 21.6842 31.5489 21.5031 31.8712 21.1808C32.1935 20.8584 32.3746 20.4213 32.3746 19.9654C32.3746 19.5096 32.1935 19.0724 31.8712 18.7501C31.5489 18.4278 31.1117 18.2467 30.6559 18.2467C30.2 18.2467 29.7628 18.4278 29.4405 18.7501C29.1182 19.0724 28.9371 19.5096 28.9371 19.9654ZM39.2066 12.7639L38.1883 10.985C38.1425 10.9065 38.0675 10.8494 37.9798 10.8261C37.892 10.8027 37.7986 10.8151 37.7199 10.8604L35.5414 12.1322L32.177 2.84238C31.9993 2.28806 31.6501 1.80453 31.1798 1.46162C30.7094 1.1187 30.1422 0.934133 29.5602 0.934571H10.9418C9.45078 0.934571 8.12734 1.89707 7.66758 3.31934L4.46211 12.1365L2.2793 10.8646C2.2006 10.8193 2.10717 10.807 2.01942 10.8304C1.93167 10.8537 1.85672 10.9108 1.81094 10.9893L0.79258 12.7639C0.698048 12.9271 0.753908 13.1334 0.917189 13.2279L3.5125 14.7404L2.88945 16.4592C2.83789 16.5967 2.81211 16.7428 2.81211 16.8889V31.8506C2.81211 32.5252 3.31914 33.0709 3.94219 33.0709H6.84688C7.37539 33.0709 7.83516 32.6713 7.94688 32.1127L8.27773 30.4928H31.7215L32.0523 32.1127C32.1684 32.6713 32.6238 33.0709 33.1523 33.0709H36.057C36.6801 33.0709 37.1871 32.5252 37.1871 31.8506V16.8889C37.1871 16.7428 37.1613 16.5967 37.1098 16.4592L36.4867 14.7404L39.0777 13.2279C39.1557 13.1829 39.2129 13.109 39.237 13.0222C39.2612 12.9355 39.2502 12.8427 39.2066 12.7639ZM34.0934 17.2154V27.399H5.90586V17.2154L6.57617 15.3678H33.423L34.0934 17.2154ZM10.5766 4.37207L10.598 4.31621L10.6152 4.26035C10.6625 4.11856 10.7914 4.02402 10.9418 4.02402H29.3152L32.5551 12.9615H7.45273L10.5766 4.37207ZM7.62461 19.9654C7.62461 20.4213 7.80569 20.8584 8.12802 21.1808C8.45035 21.5031 8.88752 21.6842 9.34336 21.6842C9.7992 21.6842 10.2364 21.5031 10.5587 21.1808C10.881 20.8584 11.0621 20.4213 11.0621 19.9654C11.0621 19.5096 10.881 19.0724 10.5587 18.7501C10.2364 18.4278 9.7992 18.2467 9.34336 18.2467C8.88752 18.2467 8.45035 18.4278 8.12802 18.7501C7.80569 19.0724 7.62461 19.5096 7.62461 19.9654Z" fill="#BC9F5F"/>
</svg>
