<svg width="40" height="40" viewBox="0 0 40 40" fill="none" xmlns="http://www.w3.org/2000/svg">
<path d="M20 0.75C9.36953 0.75 0.75 9.36953 0.75 20C0.75 30.6305 9.36953 39.25 20 39.25C30.6305 39.25 39.25 30.6305 39.25 20C39.25 9.36953 30.6305 0.75 20 0.75ZM20 35.9844C11.1742 35.9844 4.01562 28.8258 4.01562 20C4.01562 11.1742 11.1742 4.01562 20 4.01562C28.8258 4.01562 35.9844 11.1742 35.9844 20C35.9844 28.8258 28.8258 35.9844 20 35.9844ZM25.9297 26.9695H18.1867V26.7676C19.3641 26.0285 20.073 24.602 20.073 22.8531C20.073 22.2473 19.9785 21.6543 19.8453 21.0914H24.082C24.2711 21.0914 24.4258 20.9367 24.4258 20.7477V19.4586C24.4258 19.2695 24.2711 19.1148 24.082 19.1148H19.2695C18.9602 18.1437 18.6938 17.1512 18.6938 16.0855C18.6938 14.2164 20.1547 13.0691 22.4449 13.0691C23.3688 13.0691 24.2711 13.2453 25.0402 13.5203C25.2637 13.602 25.4957 13.4344 25.4957 13.1938V11.4965C25.4957 11.3547 25.4055 11.2258 25.2723 11.1742C24.4645 10.8648 23.3902 10.6285 22.2516 10.6285C18.2598 10.6285 15.7418 12.5406 15.7418 15.7977C15.7418 16.9277 16.0383 18.032 16.3691 19.1105H14.0703C13.8812 19.1105 13.7266 19.2652 13.7266 19.4543V20.7434C13.7266 20.9324 13.8812 21.0871 14.0703 21.0871H16.9535C17.0996 21.7187 17.207 22.3504 17.207 22.9863C17.207 24.9285 15.9695 26.5656 14.0789 27.034C13.9242 27.0727 13.8168 27.2102 13.8168 27.3691V29.0234C13.8168 29.2125 13.9715 29.3672 14.1605 29.3672H25.9297C26.1188 29.3672 26.2734 29.2125 26.2734 29.0234V27.3133C26.2734 27.1242 26.1188 26.9695 25.9297 26.9695Z" fill="#BC9F5F"/>
</svg>
