<svg width="40" height="34" viewBox="0 0 40 34" fill="none" xmlns="http://www.w3.org/2000/svg">
<path d="M39.1172 31.3129L36.5176 22.1562V2.21875C36.5176 1.4582 35.9031 0.84375 35.1426 0.84375H4.89255C4.13201 0.84375 3.51755 1.4582 3.51755 2.21875V22.1562L0.917943 31.3129C0.595678 32.2109 1.2574 33.1562 2.2113 33.1562H37.8238C38.7777 33.1562 39.4394 32.2109 39.1172 31.3129ZM6.6113 3.9375H33.4238V20.9102H6.6113V3.9375V3.9375ZM16.4211 30.0625L16.7691 28.4727H23.2273L23.5754 30.0625H16.4211V30.0625ZM26.0461 30.0625L25.2254 26.3371C25.191 26.1781 25.0492 26.0664 24.8902 26.0664H15.1105C14.9472 26.0664 14.8097 26.1781 14.7754 26.3371L13.9547 30.0625H4.48865L6.30622 23.6602H33.7289L35.5465 30.0625H26.0461Z" fill="#BC9F5F"/>
</svg>
