<svg width="40" height="32" viewBox="0 0 40 32" fill="none" xmlns="http://www.w3.org/2000/svg">
<path d="M37.875 0.875H2.125C1.36445 0.875 0.75 1.48945 0.75 2.25V29.75C0.75 30.5105 1.36445 31.125 2.125 31.125H37.875C38.6355 31.125 39.25 30.5105 39.25 29.75V2.25C39.25 1.48945 38.6355 0.875 37.875 0.875ZM36.1562 28.0312H3.84375V3.96875H36.1562V28.0312ZM24.2238 14.4531H29.5262C29.582 14.4531 29.625 14.2984 29.625 14.1094V12.0469C29.625 11.8578 29.582 11.7031 29.5262 11.7031H24.2238C24.168 11.7031 24.125 11.8578 24.125 12.0469V14.1094C24.125 14.2984 24.168 14.4531 24.2238 14.4531ZM24.4301 20.6406H32.4094C32.577 20.6406 32.7145 20.4859 32.7145 20.2969V18.2344C32.7145 18.0453 32.577 17.8906 32.4094 17.8906H24.4301C24.2625 17.8906 24.125 18.0453 24.125 18.2344V20.2969C24.125 20.4859 24.2625 20.6406 24.4301 20.6406V20.6406ZM7.625 22.918H9.51133C9.6918 22.918 9.83789 22.7762 9.85078 22.5957C10.0141 20.4258 11.8273 18.707 14.0273 18.707C16.2273 18.707 18.0406 20.4258 18.2039 22.5957C18.2168 22.7762 18.3629 22.918 18.5434 22.918H20.4297C20.4763 22.918 20.5225 22.9086 20.5653 22.8903C20.6082 22.8719 20.6469 22.8451 20.679 22.8113C20.7112 22.7775 20.7361 22.7376 20.7524 22.6939C20.7686 22.6502 20.7758 22.6036 20.7734 22.557C20.6531 20.2668 19.3984 18.273 17.568 17.1387C18.3752 16.2513 18.8212 15.0941 18.8184 13.8945C18.8184 11.2348 16.6742 9.08203 14.0316 9.08203C11.3891 9.08203 9.24492 11.2348 9.24492 13.8945C9.24492 15.1449 9.71758 16.2793 10.4953 17.1387C9.56344 17.7161 8.78518 18.5106 8.22699 19.4541C7.6688 20.3976 7.34726 21.4622 7.28984 22.557C7.27266 22.7547 7.42734 22.918 7.625 22.918V22.918ZM14.0273 11.6602C15.252 11.6602 16.2488 12.6613 16.2488 13.8945C16.2488 15.1277 15.252 16.1289 14.0273 16.1289C12.8027 16.1289 11.8059 15.1277 11.8059 13.8945C11.8059 12.6613 12.8027 11.6602 14.0273 11.6602Z" fill="#BC9F5F"/>
</svg>
