<svg width="50" height="50" viewBox="0 0 50 50" fill="none" xmlns="http://www.w3.org/2000/svg">
<path d="M47.25 3H41.5V0.5C41.5 0.225 41.275 0 41 0H9C8.725 0 8.5 0.225 8.5 0.5V3H2.75C2.02065 3 1.32118 3.28973 0.805456 3.80546C0.289731 4.32118 0 5.02065 0 5.75V15C0 20.1062 3.75 24.35 8.6375 25.125C9.60625 32.3875 15.4375 38.1062 22.75 38.9062V45.4813H10.5C9.39375 45.4813 8.5 46.375 8.5 47.4813V49.5C8.5 49.775 8.725 50 9 50H41C41.275 50 41.5 49.775 41.5 49.5V47.4813C41.5 46.375 40.6063 45.4813 39.5 45.4813H27.25V38.9062C34.5625 38.1062 40.3937 32.3875 41.3625 25.125C46.25 24.35 50 20.1062 50 15V5.75C50 5.02065 49.7103 4.32118 49.1945 3.80546C48.6788 3.28973 47.9793 3 47.25 3ZM4.5 15V7.5H8.5V20.475C7.33904 20.1042 6.32596 19.374 5.60699 18.3899C4.88803 17.4058 4.50038 16.2187 4.5 15V15ZM37 23C37 26.0687 35.8062 28.9625 33.6312 31.1312C31.4562 33.3062 28.5687 34.5 25.5 34.5H24.5C21.4313 34.5 18.5375 33.3062 16.3687 31.1312C14.1937 28.9562 13 26.0687 13 23V4.5H37V23ZM45.5 15C45.5 17.5625 43.8187 19.7375 41.5 20.475V7.5H45.5V15Z" fill="#BC9F5F"/>
</svg>
