<svg width="50" height="50" viewBox="0 0 50 50" fill="none" xmlns="http://www.w3.org/2000/svg">
<path d="M48 12.0625H32V5C32 3.89375 31.1063 3 30 3H4.5V0.5C4.5 0.225 4.275 0 4 0H0.5C0.225 0 0 0.225 0 0.5V49.5C0 49.775 0.225 50 0.5 50H4C4.275 50 4.5 49.775 4.5 49.5V33H20V40.0625C20 41.1688 20.8937 42.0625 22 42.0625H48C49.1063 42.0625 50 41.1688 50 40.0625V14.0625C50 12.9562 49.1063 12.0625 48 12.0625ZM4.5 28.5V7.5H27.5V28.5H4.5ZM45.5 37.5625H24.5V33H31.5C31.775 33 32 32.775 32 32.5V16.5625H45.5V37.5625Z" fill="#BC9F5F"/>
</svg>
