<svg width="50" height="52" viewBox="0 0 50 52" fill="none" xmlns="http://www.w3.org/2000/svg">
<path d="M48.3688 27.3586C49.4188 25.9711 50 24.2711 50 22.5024C50 19.6961 48.4313 17.0399 45.9062 15.5586C45.2562 15.1774 44.5161 14.9767 43.7625 14.9774H28.775L29.15 7.29614C29.2375 5.43989 28.5813 3.67739 27.3063 2.33364C26.6805 1.67132 25.9256 1.14435 25.0882 0.785298C24.2508 0.426249 23.3486 0.24275 22.4375 0.24614C19.1875 0.24614 16.3125 2.43364 15.45 5.56489L10.0812 25.0024H2C0.89375 25.0024 0 25.8961 0 27.0024V49.7524C0 50.8586 0.89375 51.7524 2 51.7524H39.5812C40.1562 51.7524 40.7187 51.6399 41.2375 51.4149C44.2125 50.1461 46.1312 47.2399 46.1312 44.0149C46.1312 43.2274 46.0188 42.4524 45.7938 41.7024C46.8438 40.3149 47.425 38.6149 47.425 36.8461C47.425 36.0586 47.3125 35.2836 47.0875 34.5336C48.1375 33.1461 48.7188 31.4461 48.7188 29.6774C48.7062 28.8899 48.5938 28.1086 48.3688 27.3586V27.3586ZM4.5 47.2524V29.5024H9.5625V47.2524H4.5ZM44.275 25.1899L42.9062 26.3774L43.775 27.9649C44.0612 28.4878 44.2096 29.075 44.2062 29.6711C44.2062 30.7024 43.7563 31.6836 42.9813 32.3586L41.6125 33.5461L42.4813 35.1336C42.7675 35.6566 42.9159 36.2438 42.9125 36.8399C42.9125 37.8711 42.4625 38.8524 41.6875 39.5274L40.3187 40.7149L41.1875 42.3024C41.4737 42.8253 41.6221 43.4125 41.6188 44.0086C41.6188 45.4086 40.7937 46.6711 39.5187 47.2461H13.5625V29.3024L19.7812 6.77114C19.9416 6.19364 20.2858 5.68415 20.7618 5.31987C21.2377 4.95558 21.8194 4.75636 22.4188 4.75239C22.8938 4.75239 23.3625 4.88989 23.7375 5.17114C24.3562 5.63364 24.6875 6.33364 24.65 7.07739L24.05 19.4774H43.7C44.8125 20.1586 45.5 21.3086 45.5 22.5024C45.5 23.5336 45.05 24.5086 44.275 25.1899Z" fill="#BC9F5F"/>
</svg>
