<svg width="32" height="40" viewBox="0 0 32 40" fill="none" xmlns="http://www.w3.org/2000/svg">
<path d="M30.7211 10.4008L21.4742 1.15391C21.2164 0.896094 20.8684 0.75 20.5031 0.75H2.25C1.48945 0.75 0.875 1.36445 0.875 2.125V37.875C0.875 38.6355 1.48945 39.25 2.25 39.25H29.75C30.5105 39.25 31.125 38.6355 31.125 37.875V11.3762C31.125 11.0109 30.9789 10.6586 30.7211 10.4008ZM27.9539 12.0078H19.8672V3.92109L27.9539 12.0078ZM28.0312 36.1562H3.96875V3.84375H16.9453V13.125C16.9453 13.6036 17.1354 14.0627 17.4739 14.4011C17.8123 14.7396 18.2714 14.9297 18.75 14.9297H28.0312V36.1562ZM15.6562 24.5547H7.75C7.56094 24.5547 7.40625 24.7094 7.40625 24.8984V26.9609C7.40625 27.15 7.56094 27.3047 7.75 27.3047H15.6562C15.8453 27.3047 16 27.15 16 26.9609V24.8984C16 24.7094 15.8453 24.5547 15.6562 24.5547ZM7.40625 19.0547V21.1172C7.40625 21.3063 7.56094 21.4609 7.75 21.4609H24.25C24.4391 21.4609 24.5938 21.3063 24.5938 21.1172V19.0547C24.5938 18.8656 24.4391 18.7109 24.25 18.7109H7.75C7.56094 18.7109 7.40625 18.8656 7.40625 19.0547Z" fill="#BC9F5F"/>
</svg>
