<svg width="36" height="36" viewBox="0 0 36 36" fill="none" xmlns="http://www.w3.org/2000/svg">
<path d="M33.8125 9.32031H27.4703C28.0547 8.40078 28.3984 7.30938 28.3984 6.14062C28.3984 2.8707 25.7387 0.210938 22.4688 0.210938C20.6898 0.210938 19.0871 1.00156 18 2.24766C16.9129 1.00156 15.3102 0.210938 13.5312 0.210938C10.2613 0.210938 7.60156 2.8707 7.60156 6.14062C7.60156 7.30938 7.94102 8.40078 8.52969 9.32031H2.1875C1.42695 9.32031 0.8125 9.93477 0.8125 10.6953V19.2891C0.8125 19.4781 0.967187 19.6328 1.15625 19.6328H2.875V34.4141C2.875 35.1746 3.48945 35.7891 4.25 35.7891H31.75C32.5105 35.7891 33.125 35.1746 33.125 34.4141V19.6328H34.8438C35.0328 19.6328 35.1875 19.4781 35.1875 19.2891V10.6953C35.1875 9.93477 34.573 9.32031 33.8125 9.32031ZM19.4609 6.14062C19.4609 4.48203 20.8102 3.13281 22.4688 3.13281C24.1273 3.13281 25.4766 4.48203 25.4766 6.14062C25.4766 7.79922 24.1273 9.14844 22.4688 9.14844H19.4609V6.14062ZM13.5312 3.13281C15.1898 3.13281 16.5391 4.48203 16.5391 6.14062V9.14844H13.5312C11.8727 9.14844 10.5234 7.79922 10.5234 6.14062C10.5234 4.48203 11.8727 3.13281 13.5312 3.13281ZM3.73438 16.7109V12.2422H16.5391V16.7109H3.73438ZM5.79688 19.6328H16.5391V32.8672H5.79688V19.6328ZM30.2031 32.8672H19.4609V19.6328H30.2031V32.8672ZM32.2656 16.7109H19.4609V12.2422H32.2656V16.7109Z" fill="#BC9F5F"/>
</svg>
