<svg width="20" height="20" viewBox="0 0 20 20" fill="none" xmlns="http://www.w3.org/2000/svg">
<path d="M9.99913 6.87628C8.27882 6.87628 6.87492 8.28019 6.87492 10.0005C6.87492 11.7208 8.27882 13.1247 9.99913 13.1247C11.7194 13.1247 13.1234 11.7208 13.1234 10.0005C13.1234 8.28019 11.7194 6.87628 9.99913 6.87628ZM19.3694 10.0005C19.3694 8.70675 19.3812 7.42472 19.3085 6.13331C19.2359 4.63331 18.8937 3.30206 17.7968 2.20519C16.6976 1.10597 15.3687 0.766127 13.8687 0.693471C12.5749 0.620814 11.2929 0.632533 10.0015 0.632533C8.70773 0.632533 7.4257 0.620814 6.13429 0.693471C4.63429 0.766127 3.30304 1.10831 2.20617 2.20519C1.10695 3.30441 0.767103 4.63331 0.694447 6.13331C0.621791 7.42706 0.63351 8.7091 0.63351 10.0005C0.63351 11.2919 0.621791 12.5763 0.694447 13.8677C0.767103 15.3677 1.10929 16.6989 2.20617 17.7958C3.30538 18.895 4.63429 19.2349 6.13429 19.3075C7.42804 19.3802 8.71007 19.3685 10.0015 19.3685C11.2952 19.3685 12.5773 19.3802 13.8687 19.3075C15.3687 19.2349 16.6999 18.8927 17.7968 17.7958C18.896 16.6966 19.2359 15.3677 19.3085 13.8677C19.3835 12.5763 19.3694 11.2943 19.3694 10.0005ZM9.99913 14.8075C7.33898 14.8075 5.1921 12.6607 5.1921 10.0005C5.1921 7.34035 7.33898 5.19347 9.99913 5.19347C12.6593 5.19347 14.8062 7.34035 14.8062 10.0005C14.8062 12.6607 12.6593 14.8075 9.99913 14.8075ZM15.003 6.11925C14.3819 6.11925 13.8804 5.61769 13.8804 4.9966C13.8804 4.3755 14.3819 3.87394 15.003 3.87394C15.6241 3.87394 16.1257 4.3755 16.1257 4.9966C16.1259 5.14408 16.097 5.29015 16.0406 5.42644C15.9843 5.56273 15.9016 5.68656 15.7973 5.79085C15.693 5.89513 15.5692 5.97782 15.4329 6.03417C15.2966 6.09053 15.1505 6.11944 15.003 6.11925Z" fill="white"/>
</svg>
