<svg width="70" height="70" viewBox="0 0 70 70" fill="none" xmlns="http://www.w3.org/2000/svg">
<path d="M35 4.375C18.0879 4.375 4.375 18.0879 4.375 35C4.375 51.9121 18.0879 65.625 35 65.625C51.9121 65.625 65.625 51.9121 65.625 35C65.625 18.0879 51.9121 4.375 35 4.375ZM35 60.4297C20.959 60.4297 9.57031 49.041 9.57031 35C9.57031 20.959 20.959 9.57031 35 9.57031C49.041 9.57031 60.4297 20.959 60.4297 35C60.4297 49.041 49.041 60.4297 35 60.4297Z" fill="white"/>
<path d="M49.1768 34.1185L28.9356 19.4212C28.7732 19.3022 28.581 19.2306 28.3804 19.2145C28.1798 19.1983 27.9786 19.2381 27.7992 19.3295C27.6199 19.421 27.4695 19.5604 27.3648 19.7323C27.26 19.9042 27.2051 20.1018 27.2061 20.3031V49.6977C27.2061 50.5932 28.2178 51.0991 28.9356 50.5795L49.1768 35.8822C49.3165 35.7815 49.4303 35.6491 49.5088 35.4957C49.5873 35.3424 49.6283 35.1726 49.6283 35.0004C49.6283 34.8281 49.5873 34.6583 49.5088 34.505C49.4303 34.3517 49.3165 34.2192 49.1768 34.1185V34.1185ZM31.5674 43.2787V26.722L42.9629 35.0004L31.5674 43.2787V43.2787Z" fill="white"/>
</svg>
