<svg width="20" height="20" viewBox="0 0 20 20" fill="none" xmlns="http://www.w3.org/2000/svg">
<path d="M18.625 0.625H1.375C0.960156 0.625 0.625 0.960156 0.625 1.375V18.625C0.625 19.0398 0.960156 19.375 1.375 19.375H18.625C19.0398 19.375 19.375 19.0398 19.375 18.625V1.375C19.375 0.960156 19.0398 0.625 18.625 0.625ZM15.0461 7.41484C15.0531 7.525 15.0531 7.63984 15.0531 7.75234C15.0531 11.193 12.4328 15.1562 7.64453 15.1562C6.16797 15.1562 4.79922 14.7273 3.64609 13.9891C3.85703 14.0125 4.05859 14.0219 4.27422 14.0219C5.49297 14.0219 6.61328 13.6094 7.50625 12.9109C6.3625 12.8875 5.40156 12.1375 5.07344 11.1063C5.47422 11.1648 5.83516 11.1648 6.24766 11.0594C5.65873 10.9397 5.12939 10.6199 4.74957 10.1542C4.36974 9.68848 4.16286 9.10564 4.16406 8.50469V8.47187C4.50859 8.66641 4.91406 8.78594 5.33828 8.80234C4.98166 8.56467 4.6892 8.24268 4.48682 7.86491C4.28445 7.48715 4.17841 7.06528 4.17813 6.63672C4.17813 6.15156 4.30469 5.70859 4.53203 5.32422C5.18571 6.12891 6.0014 6.78705 6.92609 7.25586C7.85078 7.72466 8.86377 7.99364 9.89922 8.04531C9.53125 6.27578 10.8531 4.84375 12.4422 4.84375C13.1922 4.84375 13.8672 5.15781 14.343 5.66406C14.9312 5.55391 15.4937 5.33359 15.9953 5.03828C15.8008 5.64062 15.393 6.14922 14.8516 6.47031C15.3766 6.41406 15.8828 6.26875 16.3516 6.06484C15.9977 6.58516 15.5547 7.04688 15.0461 7.41484Z" fill="white"/>
</svg>
